<?xml version="1.0" encoding="utf-8"?>
<!-- Generator: Adobe Illustrator 25.2.1, SVG Export Plug-In . SVG Version: 6.00 Build 0)  -->
<svg version="1.1" id="icons" xmlns="http://www.w3.org/2000/svg" xmlns:xlink="http://www.w3.org/1999/xlink" x="0px" y="0px"
	 viewBox="0 0 42 44" style="enable-background:new 0 0 42 44;" xml:space="preserve">
<style type="text/css">
	.st0{fill:#5F249F;}
</style>
<g>
	<path class="st0" d="M16,18h10c1.1,0,2-0.9,2-2v-2c0-1.3-1.7-2.6-3.7-3.3c1.1-1,1.7-2.5,1.7-4V5.3c0-2.8-2.2-5-5-5s-5,2.2-5,5v1.4
		c0,1.5,0.6,3,1.7,4c-2,0.7-3.7,2-3.7,3.3v2C14,17.1,14.9,18,16,18z M18,5.3c0-1.7,1.3-3,3-3s3,1.3,3,3v1.4c0,1.7-1.3,3-3,3
		s-3-1.3-3-3V5.3z M16,14.1c0.2-0.6,2.7-2.1,5-2.1s4.8,1.5,5,2v2H16V14.1z"/>
	<path class="st0" d="M10.3,36.7c1.1-1,1.7-2.5,1.7-4v-1.4c0-2.8-2.2-5-5-5s-5,2.2-5,5v1.4c0,1.5,0.6,3,1.7,4c-2,0.7-3.7,2-3.7,3.3
		v2c0,1.1,0.9,2,2,2h10c1.1,0,2-0.9,2-2v-2C14,38.7,12.3,37.4,10.3,36.7z M4,31.3c0-1.7,1.3-3,3-3s3,1.3,3,3v1.4c0,1.7-1.3,3-3,3
		s-3-1.3-3-3V31.3z M12,42H2v-1.9C2.2,39.5,4.7,38,7,38s4.8,1.5,5,2V42z"/>
	<path class="st0" d="M38.3,36.7c1.1-1,1.7-2.5,1.7-4v-1.4c0-2.8-2.2-5-5-5s-5,2.2-5,5v1.4c0,1.5,0.6,3,1.7,4c-2,0.8-3.7,2-3.7,3.3
		v2c0,1.1,0.9,2,2,2h10c1.1,0,2-0.9,2-2v-2C42,38.7,40.3,37.4,38.3,36.7z M32,31.3c0-1.7,1.3-3,3-3s3,1.3,3,3v1.4c0,1.7-1.3,3-3,3
		s-3-1.3-3-3V31.3z M40,42H30v-1.9c0.2-0.6,2.7-2.1,5-2.1s4.8,1.5,5,2V42z"/>
	<polygon class="st0" points="22,20 20,20 20,26.5 14.5,30.2 15.5,31.8 21,28.2 26.5,31.8 27.5,30.2 22,26.5 	"/>
</g>
</svg>
