<?xml version="1.0" encoding="utf-8"?>
<!-- Generator: Adobe Illustrator 25.2.1, SVG Export Plug-In . SVG Version: 6.00 Build 0)  -->
<svg version="1.1" id="icons" xmlns="http://www.w3.org/2000/svg" xmlns:xlink="http://www.w3.org/1999/xlink" x="0px" y="0px"
	 viewBox="0 0 48.1 42" style="enable-background:new 0 0 48.1 42;" xml:space="preserve">
<style type="text/css">
	.st0{fill:#5F249F;}
</style>
<g>
	<path class="st0" d="M9.9,21c0-7.7,6.3-14,14-14c4.8,0,9.3,2.5,11.9,6.5l1.7-1.1c-4.7-7.5-14.6-9.7-22.1-5c-4.7,2.9-7.5,8-7.5,13.5
		v2h1.3l-2.4,4.2l-3-4.2h1v-2c0-10.5,8.5-19,19-19V0c-11.6,0-21,9.4-21,21H0l7,9.8l5.7-9.8H9.9z"/>
	<path class="st0" d="M41,11.2L35.4,21h2.7c0,7.7-6.3,14-14,14c-4.8,0-9.3-2.5-11.9-6.5l-1.7,1.1c4.7,7.5,14.6,9.7,22.1,5
		c4.7-2.9,7.5-8,7.5-13.5v-2h-1.3l2.4-4.2l3,4.2h-1.1v2c0,10.5-8.5,19-19,19v2c11.6,0,21-9.4,21-21h2.9L41,11.2z"/>
	<polygon class="st0" points="28.2,16.3 24.4,20.1 20.7,16.3 19.2,17.7 23,21.5 19.2,25.3 20.7,26.7 24.4,22.9 28.2,26.7 29.7,25.3 
		25.9,21.5 29.7,17.7 	"/>
</g>
</svg>
